<svg xmlns="http://www.w3.org/2000/svg" viewBox="0 0 303.06 227.05"><defs><style>.cls-1{fill:#ab6dc2;stroke:#000;stroke-miterlimit:10;stroke-width:2px;}.cls-2{fill:#805292;}</style></defs><g id="Capa_2" data-name="Capa 2"><g id="Frontal"><g id="base"><path class="cls-1" d="M235.15,113.54c-1.28,5-29.47,111.47-80.5,112.5-48.09,1-78.82-92.41-85.5-120.5-7.84-32.91-1.6-55.7.5-62.5,2.57-8.35,4.87-15.72,11-23,15.76-18.72,42.52-18.86,72-19,31.75-.16,61.62-.77,76,19,4.51,6.2,5.83,11.89,8,22A160.41,160.41,0,0,1,235.15,113.54Z"/><ellipse class="cls-2" cx="154.15" cy="20.04" rx="67.5" ry="16"/><path class="cls-1" d="M27.15,51.54c-26.4,30.55-30.87,77.26-22,81,8.72,3.69,32.24-33.48,44-59,3.1-6.73,17.55-38.08,10.5-43C54.24,26.71,37.6,39.45,27.15,51.54Z"/><path class="cls-1" d="M275.91,48.94c26.4,30.55,30.87,77.26,22,81s-32.24-33.48-44-59c-3.1-6.72-17.55-38.08-10.5-43C248.82,24.11,265.46,36.85,275.91,48.94Z"/></g></g></g></svg>