<svg xmlns="http://www.w3.org/2000/svg" viewBox="0 0 116.94 133.35"><defs><style>.cls-1{fill:#2e388e;}.cls-2{fill:#5c2483;}.cls-3{fill:#257dc1;}</style></defs><g id="Capa_2" data-name="Capa 2"><g id="logos"><g id="logo_color" data-name="logo color"><path class="cls-1" d="M71.7,97.31l-11.36,5a3,3,0,0,1-2.73-.19L29.11,84.64a3,3,0,0,1-1.41-2.53V54.21a3,3,0,0,0-1.42-2.53L4.78,38.59A3,3,0,0,0,.29,41.1L0,98.57a2.94,2.94,0,0,0,1.49,2.58L57.1,133a3,3,0,0,0,2.95,0l14.32-8.29a3,3,0,0,0,1.48-2.56V100C75.85,99,72.68,96.87,71.7,97.31Z"/><path class="cls-2" d="M78.51,10.46,61.14.4a3,3,0,0,0-3,0L4.82,30.91a3,3,0,0,0,0,5.21L26,48.2a3,3,0,0,0,3.12-.1L78.65,15.56A3,3,0,0,0,78.51,10.46Z"/><path class="cls-3" d="M116.94,34.85l-.12,23.24a3,3,0,0,1-4.58,2.56L65.64,32.39a3,3,0,0,1-.1-5.09l17.6-11.59a3,3,0,0,1,3.15-.1l29.13,16.61A3,3,0,0,1,116.94,34.85Z"/><path class="cls-2" d="M112.21,84.18v16.56a3.17,3.17,0,0,1-1.58,2.74L84.2,118.73A3.16,3.16,0,0,1,79.46,116V100.07A3.16,3.16,0,0,0,78,97.43L53.56,81.34a3.17,3.17,0,0,1-1.39-3.14L54.8,61.83,70,57.12a3.14,3.14,0,0,1,2.62.34l38.15,24A3.16,3.16,0,0,1,112.21,84.18Z"/></g></g></g></svg>